<svg width="412" height="429" viewBox="0 0 412 429" fill="none" xmlns="http://www.w3.org/2000/svg">
<g id="beer-left" filter="url(#filter0_d)">
<path id="Vector" opacity="0.5" d="M39.277 125.532H36.3645V142.026H39.277V125.532Z" fill="#3AD29F"/>
<path id="Vector_2" opacity="0.5" d="M46.0728 135.235V132.324H29.5687V135.235H46.0728Z" fill="#3AD29F"/>
<path id="Vector_3" d="M5.43219 182.968C1.09353 207.549 6.70322 232.845 21.0272 253.293C35.3512 273.74 57.2161 287.663 81.8119 291.999L75.5453 327.502C73.0476 341.653 76.277 356.216 84.5233 367.987C92.7696 379.759 105.357 387.774 119.517 390.27L287.13 419.819C294.141 421.055 301.327 420.899 308.278 419.359C315.229 417.82 321.808 414.927 327.641 410.846C333.473 406.766 338.444 401.577 342.269 395.577C346.095 389.576 348.701 382.881 349.937 375.874L402.245 79.5257L127.853 31.1532L114.53 106.636C89.9341 102.3 64.6221 107.906 44.1623 122.221C23.7025 136.536 9.77088 158.388 5.43219 182.968V182.968ZM27.4218 186.845C29.0607 177.56 32.5135 168.688 37.5832 160.737C42.6528 152.785 49.2399 145.909 56.9685 140.502C64.697 135.094 73.4157 131.261 82.6265 129.221C91.8374 127.181 101.36 126.974 110.651 128.612L85.6909 270.023C66.927 266.715 50.2466 256.093 39.319 240.494C28.3914 224.895 24.1119 205.597 27.4218 186.845V186.845Z" fill="#DBE8FC"/>
<path id="Vector_4" d="M138.435 177.842L349.727 215.091L373.001 83.2347L161.709 45.9855L138.435 177.842Z" fill="white"/>
<path id="Vector_5" opacity="0.03" d="M114.32 24.655C120.543 3.32389 190.475 4.93863 270.516 28.2616C350.557 51.5847 410.398 87.784 404.175 109.115C400.379 122.125 372.878 126.594 333.846 122.814C335.219 128.567 334.517 134.619 331.866 139.907C329.215 145.194 324.783 149.378 319.35 151.722C313.917 154.067 307.831 154.423 302.162 152.726C296.493 151.03 291.604 147.39 288.354 142.447C278.983 161.49 263.584 172.916 250.4 169.074C235.971 164.87 229.134 143.821 233.62 120.184C226.353 125.864 218.15 128.247 210.542 126.03C201.267 123.327 194.923 114.384 192.583 102.676C186.736 105.8 180.549 106.814 174.712 105.113C167.233 102.933 161.656 96.6986 158.548 88.2276C152.376 105.019 138.153 115.413 125.6 111.756C112.26 107.868 105.86 89.5864 111.305 70.9217C114.196 61.0111 119.846 52.9857 126.507 48.2192C116.906 39.4745 112.371 31.3354 114.32 24.655Z" fill="black"/>
<path id="Vector_6" d="M117.137 14.9992C123.36 -6.33194 193.292 -4.71719 273.333 18.6058C353.374 41.9288 413.215 78.1281 406.992 99.4593C403.196 112.469 375.695 116.939 336.663 113.158C338.036 118.911 337.334 124.963 334.683 130.251C332.032 135.538 327.6 139.722 322.167 142.067C316.734 144.411 310.648 144.767 304.979 143.07C299.31 141.374 294.421 137.734 291.171 132.791C281.8 151.834 266.401 163.26 253.217 159.418C238.788 155.214 231.951 134.165 236.437 110.528C229.17 116.208 220.967 118.591 213.359 116.374C204.084 113.671 197.74 104.728 195.4 93.0203C189.553 96.1445 183.366 97.1577 177.529 95.457C170.05 93.2776 164.473 87.0428 161.365 78.5718C155.193 95.3632 140.97 105.758 128.417 102.1C115.077 98.2125 108.677 79.9306 114.122 61.2659C117.013 51.3553 122.663 43.3298 129.324 38.5634C119.723 29.8187 115.188 21.6796 117.137 14.9992Z" fill="#FAFAFA"/>
<path id="Vector_7" d="M361.027 151.076C361.027 151.076 314.46 130.059 265.421 150.97C216.383 171.882 149.736 113.828 149.736 113.828L138.444 177.8L285.954 224.54L329.089 220.322L361.027 151.076Z" fill="#F6C101"/>
<path id="Vector_8" opacity="0.05" d="M361.027 151.076C361.027 151.076 314.46 130.059 265.421 150.97C216.383 171.882 149.736 113.828 149.736 113.828L138.444 177.8L285.954 224.54L329.089 220.322L361.027 151.076Z" fill="black"/>
<path id="Vector_9" d="M108.417 347.92L319.708 385.168L361.027 151.076C290.228 189.039 219.797 176.623 149.736 113.828L108.417 347.92Z" fill="#F6C101"/>
<path id="Vector_10" d="M322.67 202.753C326.868 203.977 324.972 210.499 320.767 209.274C316.569 208.05 318.465 201.528 322.67 202.753Z" fill="#FAFAFA"/>
<path id="Vector_11" d="M227.41 334.727C231.608 335.95 229.713 342.472 225.508 341.247C221.31 340.024 223.205 333.502 227.41 334.727Z" fill="#FAFAFA"/>
<path id="Vector_12" d="M274.816 283.971C279.014 285.195 277.119 291.717 272.914 290.492C268.716 289.268 270.611 282.746 274.816 283.971Z" fill="#FAFAFA"/>
<path id="Vector_13" d="M239.438 227.489C243.636 228.712 241.741 235.234 237.536 234.009C233.338 232.786 235.233 226.264 239.438 227.489Z" fill="#FAFAFA"/>
<path id="Vector_14" d="M154.853 192.873C159.051 194.096 157.155 200.619 152.95 199.393C148.752 198.17 150.648 191.648 154.853 192.873Z" fill="#FAFAFA"/>
</g>
<defs>
<filter id="filter0_d" x="0" y="0" width="411.437" height="428.643" filterUnits="userSpaceOnUse" color-interpolation-filters="sRGB">
<feFlood flood-opacity="0" result="BackgroundImageFix"/>
<feColorMatrix in="SourceAlpha" type="matrix" values="0 0 0 0 0 0 0 0 0 0 0 0 0 0 0 0 0 0 127 0"/>
<feOffset dy="4"/>
<feGaussianBlur stdDeviation="2"/>
<feColorMatrix type="matrix" values="0 0 0 0 0 0 0 0 0 0 0 0 0 0 0 0 0 0 0.25 0"/>
<feBlend mode="normal" in2="BackgroundImageFix" result="effect1_dropShadow"/>
<feBlend mode="normal" in="SourceGraphic" in2="effect1_dropShadow" result="shape"/>
</filter>
</defs>
</svg>
