<svg width="404" height="421" viewBox="0 0 404 421" fill="none" xmlns="http://www.w3.org/2000/svg">
<g id="beer-right">
<path id="Vector" d="M292.907 106.636L279.583 31.1532L5.19122 79.5257L57.4992 375.874C59.997 390.025 68.0173 402.605 79.796 410.846C91.5746 419.088 106.147 422.315 120.306 419.819L287.92 390.27C294.931 389.034 301.63 386.43 307.634 382.607C313.638 378.784 318.83 373.816 322.913 367.987C326.996 362.159 329.891 355.583 331.431 348.637C332.972 341.69 333.128 334.509 331.891 327.502L325.625 291.999C350.22 287.663 372.085 273.74 386.409 253.293C400.733 232.845 406.343 207.549 402.004 182.968C397.666 158.388 383.734 136.536 363.274 122.221C342.814 107.906 317.502 102.3 292.907 106.636ZM321.746 270.023L296.786 128.612C306.077 126.973 315.6 127.18 324.811 129.219C334.023 131.259 342.742 135.092 350.471 140.5C358.2 145.907 364.788 152.783 369.858 160.735C374.928 168.687 378.381 177.559 380.02 186.844C381.659 196.13 381.451 205.647 379.41 214.853C377.368 224.058 373.532 232.772 368.121 240.496C362.71 248.219 355.829 254.803 347.872 259.869C339.915 264.935 331.037 268.385 321.746 270.023V270.023Z" fill="#DBE8FC"/>
<path id="Vector_2" d="M245.726 45.9887L34.4351 83.2373L57.7087 215.093L269 177.845L245.726 45.9887Z" fill="white"/>
<path id="Vector_3" opacity="0.03" d="M293.117 24.6551C286.893 3.32394 216.962 4.9387 136.921 28.2617C56.8795 51.5848 -2.96172 87.784 3.26165 109.115C7.05726 122.125 34.5581 126.594 73.5903 122.814C72.218 128.567 72.9191 134.619 75.5705 139.907C78.2218 145.194 82.6535 149.378 88.0864 151.723C93.5192 154.067 99.6053 154.423 105.274 152.726C110.944 151.03 115.833 147.39 119.082 142.447C128.453 161.49 143.852 172.916 157.036 169.074C171.465 164.87 178.303 143.821 173.816 120.184C181.084 125.864 189.287 128.247 196.894 126.03C206.17 123.327 212.513 114.384 214.854 102.676C220.701 105.8 226.888 106.814 232.724 105.113C240.204 102.933 245.781 96.6987 248.888 88.2277C255.061 105.019 269.283 115.413 281.837 111.756C295.177 107.868 301.577 89.5865 296.132 70.9218C293.24 61.0112 287.59 52.9858 280.93 48.2193C290.531 39.4746 295.066 31.3354 293.117 24.6551Z" fill="black"/>
<path id="Vector_4" d="M290.299 14.9992C284.076 -6.33194 214.145 -4.71719 134.104 18.6058C54.0624 41.9288 -5.77876 78.1281 0.4446 99.4593C4.24021 112.469 31.7411 116.939 70.7733 113.158C69.4009 118.911 70.1021 124.963 72.7534 130.251C75.4047 135.538 79.8365 139.722 85.2694 142.067C90.7022 144.411 96.7883 144.767 102.457 143.07C108.127 141.374 113.016 137.734 116.265 132.791C125.636 151.834 141.035 163.26 154.219 159.418C168.648 155.214 175.486 134.165 170.999 110.528C178.267 116.208 186.47 118.591 194.077 116.374C203.352 113.671 209.696 104.728 212.037 93.0203C217.884 96.1445 224.071 97.1577 229.907 95.457C237.387 93.2776 242.964 87.0428 246.071 78.5717C252.243 95.3632 266.466 105.758 279.02 102.1C292.36 98.2125 298.76 79.9306 293.314 61.2659C290.423 51.3553 284.773 43.3298 278.113 38.5634C287.714 29.8187 292.248 21.6796 290.299 14.9992Z" fill="#FAFAFA"/>
<path id="Vector_5" d="M46.4092 151.076C46.4092 151.076 92.9763 130.059 142.015 150.97C191.054 171.882 257.701 113.828 257.701 113.828L268.992 177.8L121.483 224.54L78.348 220.322L46.4092 151.076Z" fill="#F6C101"/>
<path id="Vector_6" opacity="0.05" d="M46.4092 151.076C46.4092 151.076 92.9763 130.059 142.015 150.97C191.054 171.882 257.701 113.828 257.701 113.828L268.992 177.8L121.483 224.54L78.348 220.322L46.4092 151.076Z" fill="black"/>
<path id="Vector_7" d="M299.02 347.92L87.7284 385.168L46.4092 151.076C117.209 189.039 187.639 176.623 257.701 113.828L299.02 347.92Z" fill="#F6C101"/>
<path id="Vector_8" d="M84.767 202.753C80.569 203.977 82.4643 210.499 86.6692 209.274C90.8672 208.05 88.9719 201.528 84.767 202.753Z" fill="#FAFAFA"/>
<path id="Vector_9" d="M180.026 334.727C175.828 335.95 177.723 342.472 181.928 341.247C186.126 340.024 184.231 333.502 180.026 334.727Z" fill="#FAFAFA"/>
<path id="Vector_10" d="M132.62 283.971C128.422 285.195 130.318 291.717 134.523 290.492C138.721 289.268 136.825 282.746 132.62 283.971Z" fill="#FAFAFA"/>
<path id="Vector_11" d="M167.999 227.489C163.801 228.712 165.696 235.234 169.901 234.009C174.099 232.786 172.203 226.264 167.999 227.489Z" fill="#FAFAFA"/>
<path id="Vector_12" d="M252.584 192.873C248.386 194.096 250.281 200.619 254.486 199.393C258.684 198.17 256.789 191.648 252.584 192.873Z" fill="#FAFAFA"/>
</g>
</svg>
